<svg xmlns="http://www.w3.org/2000/svg" id="_001-facebook" width="30" height="30" data-name="001-facebook" viewBox="0 0 30 30">
    <defs>
        <style>
            .cls-1{fill:#30bbad}
        </style>
    </defs>
    <path id="Path_245" d="M291.216 508.668q-.18.029-.361.054.182-.022.361-.054zm0 0" class="cls-1" data-name="Path 245" transform="translate(-273.804 -478.855)"/>
    <path id="Path_246" d="M299.512 507.793l-.172.03zm0 0" class="cls-1" data-name="Path 246" transform="translate(-281.796 -478.029)"/>
    <path id="Path_247" d="M278.033 510.34q-.21.024-.423.042.212-.018.423-.042zm0 0" class="cls-1" data-name="Path 247" transform="translate(-261.333 -480.433)"/>
    <path id="Path_248" d="M286.648 509.738l-.2.025zm0 0" class="cls-1" data-name="Path 248" transform="translate(-269.657 -479.865)"/>
    <path id="Path_249" d="M306.816 506.41l-.152.032zm0 0" class="cls-1" data-name="Path 249" transform="translate(-288.692 -476.724)"/>
    <path id="Path_250" d="M324.607 502.113l-.123.034zm0 0" class="cls-1" data-name="Path 250" transform="translate(-305.468 -472.669)"/>
    <path id="Path_251" d="M319.192 503.543l-.133.035zm0 0" class="cls-1" data-name="Path 251" transform="translate(-300.36 -474.018)"/>
    <path id="Path_252" d="M312.208 505.254l-.142.032zm0 0" class="cls-1" data-name="Path 252" transform="translate(-293.778 -475.633)"/>
    <path id="Path_253" d="M273.708 511.09l-.227.017zm0 0" class="cls-1" data-name="Path 253" transform="translate(-257.451 -481.141)"/>
    <path id="Path_254" d="M30 15a15 15 0 1 0-15 15h.264V18.32h-3.223v-3.756h3.223V11.8c0-3.205 1.957-4.95 4.816-4.95a26.528 26.528 0 0 1 2.889.15v3.35H21c-1.555 0-1.857.739-1.857 1.824v2.392h3.717l-.485 3.756H19.14v11.1A15.008 15.008 0 0 0 30 15zm0 0" class="cls-1" data-name="Path 254"/>
    <path id="Path_255" d="M265.342 511.43q-.225.015-.451.022.226-.007.451-.022zm0 0" class="cls-1" data-name="Path 255" transform="translate(-249.36 -481.462)"/>
    <path id="Path_256" d="M260.743 511.836l-.239.006zm0 0" class="cls-1" data-name="Path 256" transform="translate(-245.235 -481.845)"/>
</svg>
