<svg xmlns="http://www.w3.org/2000/svg" id="_001-facebook" width="25" height="25" data-name="001-facebook" viewBox="0 0 25 25">
    <defs>
        <style>
            .cls-1{fill:#fff}
        </style>
    </defs>
    <path id="Path_245" d="M291.156 508.668q-.15.024-.3.045.15-.021.3-.045zm0 0" class="cls-1" data-name="Path 245" transform="translate(-276.646 -483.824)"/>
    <path id="Path_246" d="M299.483 507.793l-.143.025zm0 0" class="cls-1" data-name="Path 246" transform="translate(-284.72 -482.99)"/>
    <path id="Path_247" d="M277.962 510.34q-.175.02-.353.035.177-.015.353-.035zm0 0" class="cls-1" data-name="Path 247" transform="translate(-264.046 -485.418)"/>
    <path id="Path_248" d="M286.614 509.738l-.169.021zm0 0" class="cls-1" data-name="Path 248" transform="translate(-272.455 -484.844)"/>
    <path id="Path_249" d="M306.791 506.41l-.127.027zm0 0" class="cls-1" data-name="Path 249" transform="translate(-291.687 -481.672)"/>
    <path id="Path_250" d="M324.586 502.113l-.1.028zm0 0" class="cls-1" data-name="Path 250" transform="translate(-308.638 -477.576)"/>
    <path id="Path_251" d="M319.17 503.543l-.111.029zm0 0" class="cls-1" data-name="Path 251" transform="translate(-303.477 -478.939)"/>
    <path id="Path_252" d="M312.185 505.254l-.118.026zm0 0" class="cls-1" data-name="Path 252" transform="translate(-296.826 -480.57)"/>
    <path id="Path_253" d="M273.67 511.09l-.19.014zm0 0" class="cls-1" data-name="Path 253" transform="translate(-260.123 -486.132)"/>
    <path id="Path_254" d="M25 12.5A12.5 12.5 0 1 0 12.5 25h.22v-9.734h-2.686v-3.13h2.686v-2.3a3.759 3.759 0 0 1 4.013-4.125 22.107 22.107 0 0 1 2.408.123v2.789H17.5c-1.3 0-1.547.616-1.547 1.52v1.993h3.1l-.4 3.13h-2.7v9.251A12.507 12.507 0 0 0 25 12.5zm0 0" class="cls-1" data-name="Path 254"/>
    <path id="Path_255" d="M265.266 511.43q-.187.012-.376.019.189-.007.376-.019zm0 0" class="cls-1" data-name="Path 255" transform="translate(-251.948 -486.456)"/>
    <path id="Path_256" d="M260.7 511.836h-.2zm0 0" class="cls-1" data-name="Path 256" transform="translate(-247.78 -486.844)"/>
</svg>
