<svg xmlns="http://www.w3.org/2000/svg" id="_011-instagram" width="25" height="25" data-name="011-instagram" viewBox="0 0 25 25">
    <defs>
        <style>
            .cls-1{fill:#fff}
        </style>
    </defs>
    <path id="Path_259" d="M211.959 209.48a2.48 2.48 0 1 1-2.48-2.48 2.48 2.48 0 0 1 2.48 2.48zm0 0" class="cls-1" data-name="Path 259" transform="translate(-196.98 -196.98)"/>
    <path id="Path_260" d="M147.382 137.2a2.463 2.463 0 0 0-1.412-1.412 4.115 4.115 0 0 0-1.381-.256c-.785-.036-1.02-.044-3.006-.044s-2.222.008-3.006.043a4.118 4.118 0 0 0-1.381.256 2.464 2.464 0 0 0-1.412 1.412 4.117 4.117 0 0 0-.256 1.381c-.036.784-.043 1.02-.043 3.006s.008 2.221.043 3.006a4.116 4.116 0 0 0 .256 1.381 2.463 2.463 0 0 0 1.412 1.412 4.111 4.111 0 0 0 1.381.256c.784.036 1.019.043 3.006.043s2.222-.008 3.006-.043a4.111 4.111 0 0 0 1.381-.256 2.463 2.463 0 0 0 1.412-1.412 4.12 4.12 0 0 0 .256-1.381c.036-.785.043-1.02.043-3.006s-.008-2.222-.043-3.006a4.11 4.11 0 0 0-.256-1.38zm-5.8 8.207a3.82 3.82 0 1 1 3.82-3.82 3.82 3.82 0 0 1-3.819 3.819zm3.971-6.9a.893.893 0 1 1 .893-.893.893.893 0 0 1-.892.895zm0 0" class="cls-1" data-name="Path 260" transform="translate(-129.083 -129.087)"/>
    <path id="Path_261" d="M12.5 0A12.5 12.5 0 1 0 25 12.5 12.5 12.5 0 0 0 12.5 0zm7.134 15.459A5.266 5.266 0 0 1 19.3 17.2a3.67 3.67 0 0 1-2.1 2.1 5.27 5.27 0 0 1-1.742.334c-.765.035-1.01.043-2.959.043s-2.194-.008-2.959-.043A5.27 5.27 0 0 1 7.8 19.3a3.67 3.67 0 0 1-2.1-2.1 5.265 5.265 0 0 1-.334-1.742c-.035-.766-.043-1.01-.043-2.959s.008-2.194.043-2.959A5.267 5.267 0 0 1 5.7 7.8a3.673 3.673 0 0 1 2.1-2.1 5.271 5.271 0 0 1 1.742-.334c.765-.035 1.01-.043 2.959-.043s2.194.008 2.959.043a5.272 5.272 0 0 1 1.74.334 3.671 3.671 0 0 1 2.1 2.1 5.266 5.266 0 0 1 .334 1.742c.035.765.043 1.01.043 2.959s-.007 2.193-.043 2.958zm0 0" class="cls-1" data-name="Path 261"/>
</svg>
