<svg xmlns="http://www.w3.org/2000/svg" id="_011-instagram" width="30" height="30" data-name="011-instagram" viewBox="0 0 30 30">
    <defs>
        <style>
            .cls-1{fill:#30bbad}
        </style>
    </defs>
    <path id="Path_259" d="M212.722 209.861a2.861 2.861 0 1 1-2.861-2.861 2.861 2.861 0 0 1 2.861 2.861zm0 0" class="cls-1" data-name="Path 259" transform="translate(-194.861 -194.861)"/>
    <path id="Path_260" d="M149.212 137.463a2.842 2.842 0 0 0-1.629-1.629 4.749 4.749 0 0 0-1.594-.3c-.905-.041-1.177-.05-3.468-.05s-2.563.009-3.468.05a4.752 4.752 0 0 0-1.594.3 2.843 2.843 0 0 0-1.629 1.629 4.75 4.75 0 0 0-.3 1.594c-.041.905-.05 1.176-.05 3.468s.009 2.563.05 3.468a4.749 4.749 0 0 0 .3 1.594 2.842 2.842 0 0 0 1.629 1.629 4.743 4.743 0 0 0 1.594.3c.905.041 1.176.05 3.468.05s2.564-.009 3.468-.05a4.743 4.743 0 0 0 1.594-.3 2.842 2.842 0 0 0 1.629-1.629 4.753 4.753 0 0 0 .3-1.594c.041-.905.05-1.177.05-3.468s-.009-2.563-.05-3.468a4.743 4.743 0 0 0-.3-1.594zm-6.691 9.47a4.407 4.407 0 1 1 4.407-4.407 4.407 4.407 0 0 1-4.407 4.406zm4.582-7.959a1.03 1.03 0 1 1 1.03-1.03 1.03 1.03 0 0 1-1.033 1.029zm0 0" class="cls-1" data-name="Path 260" transform="translate(-127.521 -127.525)"/>
    <path id="Path_261" d="M15 0a15 15 0 1 0 15 15A15 15 0 0 0 15 0zm8.561 18.551a6.319 6.319 0 0 1-.4 2.091 4.4 4.4 0 0 1-2.519 2.519 6.324 6.324 0 0 1-2.091.4c-.919.042-1.212.052-3.551.052s-2.633-.01-3.551-.052a6.324 6.324 0 0 1-2.091-.4 4.4 4.4 0 0 1-2.519-2.519 6.318 6.318 0 0 1-.4-2.091c-.039-.918-.052-1.212-.052-3.551s.01-2.633.052-3.551a6.32 6.32 0 0 1 .4-2.091 4.407 4.407 0 0 1 2.519-2.519 6.325 6.325 0 0 1 2.091-.4c.919-.042 1.212-.052 3.551-.052s2.633.01 3.551.052a6.327 6.327 0 0 1 2.091.4 4.405 4.405 0 0 1 2.519 2.519 6.319 6.319 0 0 1 .4 2.091c.042.919.052 1.212.052 3.551s-.013 2.633-.052 3.551zm0 0" class="cls-1" data-name="Path 261"/>
</svg>
