<svg xmlns="http://www.w3.org/2000/svg" id="_003-whatsapp" width="25.5" height="25.5" data-name="003-whatsapp" viewBox="0 0 25.5 25.5">
    <defs>
        <style>
            .cls-1{fill:#fff}
        </style>
    </defs>
    <path id="Path_257" d="M12.75 0A12.75 12.75 0 1 0 25.5 12.75 12.751 12.751 0 0 0 12.75 0zm.27 20.173a7.628 7.628 0 0 1-3.647-.929l-4.048 1.062 1.083-3.953a7.631 7.631 0 1 1 6.613 3.821zm0 0" class="cls-1" data-name="Path 257"/>
    <path id="Path_258" d="M140.521 124.469a6.353 6.353 0 0 0-6.451 6.233 6.069 6.069 0 0 0 .986 3.317l.153.236-.652 2.3 2.441-.619.236.135a6.606 6.606 0 0 0 3.282.869 6.353 6.353 0 0 0 6.448-6.234 6.094 6.094 0 0 0-1.887-4.41 6.518 6.518 0 0 0-4.556-1.827zm3.793 8.914a2 2 0 0 1-1.308.891 2.748 2.748 0 0 1-1.221-.074 11.445 11.445 0 0 1-1.105-.395 8.533 8.533 0 0 1-3.311-2.83 3.584 3.584 0 0 1-.792-1.939 2.073 2.073 0 0 1 .678-1.563.724.724 0 0 1 .517-.235c.129 0 .258 0 .371.007s.279-.044.436.322.549 1.3.6 1.391a.336.336 0 0 1 .016.328 5.349 5.349 0 0 1-.485.641c-.086.1-.2.195-.085.383a5.684 5.684 0 0 0 1.078 1.3 5.34 5.34 0 0 0 1.559.93c.194.094.307.078.42-.047s.485-.547.614-.735.259-.156.436-.094 1.131.516 1.325.61.323.141.371.219a1.515 1.515 0 0 1-.114.889zm0 0" class="cls-1" data-name="Path 258" transform="translate(-127.503 -118.166)"/>
</svg>
