<svg xmlns="http://www.w3.org/2000/svg" id="_003-whatsapp" width="30" height="30" data-name="003-whatsapp" viewBox="0 0 30 30">
    <defs>
        <style>
            .cls-1{fill:#30bbad}
        </style>
    </defs>
    <path id="Path_257" d="M15 0a15 15 0 1 0 15 15A15 15 0 0 0 15 0zm.318 23.733a8.974 8.974 0 0 1-4.29-1.092l-4.763 1.248 1.274-4.651a8.978 8.978 0 1 1 7.779 4.5zm0 0" class="cls-1" data-name="Path 257"/>
    <path id="Path_258" d="M141.66 124.469a7.475 7.475 0 0 0-7.59 7.333 7.14 7.14 0 0 0 1.16 3.9l.18.277-.766 2.706 2.871-.728.277.159a7.771 7.771 0 0 0 3.861 1.022 7.474 7.474 0 0 0 7.586-7.334 7.169 7.169 0 0 0-2.22-5.188 7.668 7.668 0 0 0-5.359-2.147zm4.462 10.487a2.35 2.35 0 0 1-1.539 1.044 3.233 3.233 0 0 1-1.436-.087 13.465 13.465 0 0 1-1.3-.464 10.039 10.039 0 0 1-3.9-3.329 4.217 4.217 0 0 1-.931-2.281 2.439 2.439 0 0 1 .8-1.839.852.852 0 0 1 .608-.276c.152 0 .3 0 .437.008s.328-.052.513.378.646 1.527.7 1.637a.4.4 0 0 1 .019.386 6.3 6.3 0 0 1-.57.754c-.1.121-.233.229-.1.45a6.686 6.686 0 0 0 1.269 1.527 6.282 6.282 0 0 0 1.834 1.094c.228.11.361.092.494-.055s.57-.644.722-.865.3-.184.513-.11 1.33.607 1.558.717.38.166.437.258a1.783 1.783 0 0 1-.128 1.052zm0 0" class="cls-1" data-name="Path 258" transform="translate(-126.344 -117.054)"/>
</svg>
