<svg xmlns="http://www.w3.org/2000/svg" width="140.02" height="107.034" viewBox="0 0 140.02 107.034">
    <defs>
        <style>
            .cls-1{opacity:.672}.cls-2{fill:#30bbad}
        </style>
    </defs>
    <g id="Group_212" class="cls-1" data-name="Group 212" transform="translate(-894.165 -194.051)">
        <g id="Group_144" data-name="Group 144" transform="translate(894.165 194.051)">
            <g id="Group_143" data-name="Group 143">
                <path id="Path_244" d="M1032.291 239.263c-2.195-1.524-.747-.954-.036-4.3s-.007-6.254-3.555-7.658.08-2.931-1.622-6.892-11.079-2.057-14.3-3.327-3.617-4.063-4.771-7.81-4.161-3.613-7.386-4.886-1.723-4.625-3.882-7.781-4.7-2.84-9.149-1.963-7.324 1.07-11.888 3.541-8.554 15.08-9.824 20.826c-1.3 5.75-.791 12.526-3.512 12.446s-.972-18.49-1.516-21.015-3.631-10.31-5.732-11.474-4.691-2.173-9.294-1.023-4.368 3.537-8.656 4.814-10.135 3.258-12.428 7.288-6.563 5.307-13.183 8.627-8.706 9.087-13.571 12.109-1.818 10.154.16 12.243-4.222 3.276-3.972 7 13.009 8.416 35.3 6.015 31.695 1.31 31.655 9.566c-.069 13.8-.047 17.086-.047 35.475h3.21c.029-24.566.007-28.143-.138-35.475-.417-21.646 53.827-8.942 61.122-10.669s5.67-3.04 7.633-7.2 1.573-6.954-.618-8.477z" class="cls-2" data-name="Path 244" transform="translate(-894.165 -194.051)"/>
            </g>
        </g>
    </g>
</svg>
