<svg xmlns="http://www.w3.org/2000/svg" width="64.672" height="81.846" viewBox="0 0 64.672 81.846">
    <defs>
        <style>
            .cls-1{fill:#2ebbad}
        </style>
    </defs>
    <g id="Group_142" data-name="Group 142" transform="translate(-28.22 -28.778)">
        <g id="Group_140" data-name="Group 140">
            <g id="Group_139" data-name="Group 139">
                <path id="Path_239" d="M40.891 99.009a7.567 7.567 0 0 1-5.069 1.795 8.181 8.181 0 0 1-7.6-4.593l1.846-1.111a7.366 7.366 0 0 0 2.164 2.534 5.791 5.791 0 0 0 3.59 1q4.962 0 4.963-4.223a4.021 4.021 0 0 0-1.742-3.22 11.105 11.105 0 0 0-1.505-.713q-.976-.4-2.4-.924a13.38 13.38 0 0 1-3.8-1.9 4.8 4.8 0 0 1-1.692-3.954 5.022 5.022 0 0 1 1.689-3.8 5.783 5.783 0 0 1 4.276-1.637 8.4 8.4 0 0 1 6.177 2.534L40.2 82.168a6.223 6.223 0 0 0-4.593-1.795q-3.8 0-3.8 3.326a3 3 0 0 0 1.162 2.428 10.416 10.416 0 0 0 3.009 1.426 30.736 30.736 0 0 1 2.956 1.188 11.677 11.677 0 0 1 1.743.976 5.619 5.619 0 0 1 2.27 4.7 5.722 5.722 0 0 1-2.056 4.592z" class="cls-1" data-name="Path 239"/>
                <path id="Path_240" d="M65.545 97.478a11.379 11.379 0 0 1-17-1.161v14.307h-2.164V78.577h2.164V82.7a11.38 11.38 0 0 1 16.947-1.215 11.477 11.477 0 0 1 .053 16zm-1.584-14.413a9.113 9.113 0 1 0 2.693 6.441 8.788 8.788 0 0 0-2.693-6.441z" class="cls-1" data-name="Path 240"/>
                <path id="Path_241" d="M90.727 100.382v-3.749a11.245 11.245 0 1 1 0-14.254v-3.8h2.165v21.805zm-2.27-17.317a9.115 9.115 0 1 0 2.692 6.441 8.788 8.788 0 0 0-2.692-6.441z" class="cls-1" data-name="Path 241"/>
            </g>
        </g>
        <g id="Group_141" data-name="Group 141">
            <path id="Path_242" d="M54.683 73.744V53.659q0-10.65-9.595-10.652-4.716 0-7.155 2.765a10.8 10.8 0 0 0-2.521 7.563v20.409h-3.334V40.162h3.334v4.065q2.276-4.47 9.676-4.472 6.261 0 9.595 3.578t3.334 10v20.411z" class="cls-1" data-name="Path 242"/>
            <path id="Path_243" d="M88.346 70.817Q85.012 74.395 79 74.395q-5.937 0-9.189-3.5t-3.257-9.755V40.162h3.334V61.14q0 4.8 2.114 7.4 2.2 2.6 6.993 2.6 9.349 0 9.351-10V40.162H91.6V61.14q0 6.182-3.254 9.677zM73.384 34.145a3.152 3.152 0 0 1-1.87-.732 2.921 2.921 0 0 1-.813-1.951q0-2.2 2.683-2.684 2.032 0 2.684 2.684a2.372 2.372 0 0 1-2.684 2.683zm11.14 0a3.15 3.15 0 0 1-1.87-.732 2.921 2.921 0 0 1-.813-1.951q0-2.2 2.683-2.684 2.031 0 2.684 2.684a2.372 2.372 0 0 1-2.684 2.683z" class="cls-1" data-name="Path 243"/>
        </g>
    </g>
</svg>
