<svg xmlns="http://www.w3.org/2000/svg" width="51.964" height="65.763" viewBox="0 0 51.964 65.763">
    <defs>
        <style>
            .cls-1{fill:#fff}
        </style>
    </defs>
    <g id="Group_152" data-name="Group 152" transform="translate(-28.22 -28.778)">
        <g id="Group_140" data-name="Group 140" transform="translate(28.22 68.538)">
            <g id="Group_139" data-name="Group 139">
                <path id="Path_239" d="M38.4 94.932a6.08 6.08 0 0 1-4.073 1.442 6.573 6.573 0 0 1-6.108-3.69l1.485-.891a5.919 5.919 0 0 0 1.739 2.036 4.653 4.653 0 0 0 2.885.806q3.987 0 3.988-3.393a3.231 3.231 0 0 0-1.4-2.587 8.923 8.923 0 0 0-1.209-.573q-.785-.319-1.93-.742a10.751 10.751 0 0 1-3.054-1.527 3.857 3.857 0 0 1-1.357-3.181 4.035 4.035 0 0 1 1.357-3.054 4.647 4.647 0 0 1 3.436-1.315 6.751 6.751 0 0 1 4.963 2.037l-1.273 1.1a5 5 0 0 0-3.69-1.442q-3.054 0-3.054 2.672a2.407 2.407 0 0 0 .934 1.951 8.369 8.369 0 0 0 2.418 1.146 24.7 24.7 0 0 1 2.375.955 9.383 9.383 0 0 1 1.4.784 4.515 4.515 0 0 1 1.824 3.776 4.6 4.6 0 0 1-1.656 3.69z" class="cls-1" data-name="Path 239" transform="translate(-28.22 -78.261)"/>
                <path id="Path_240" d="M61.779 93.7a9.143 9.143 0 0 1-13.66-.933v11.5h-1.738V78.515h1.739v3.31a9.144 9.144 0 0 1 13.617-.976 9.221 9.221 0 0 1 .042 12.851zm-1.272-11.579A7.322 7.322 0 1 0 62.67 87.3a7.061 7.061 0 0 0-2.163-5.179z" class="cls-1" data-name="Path 240" transform="translate(-31.789 -78.261)"/>
                <path id="Path_241" d="M86.806 96.035v-3.012a9.035 9.035 0 1 1 0-11.453v-3.055h1.74v17.52zm-1.824-13.914a7.324 7.324 0 1 0 2.163 5.179 7.061 7.061 0 0 0-2.163-5.179z" class="cls-1" data-name="Path 241" transform="translate(-36.581 -78.261)"/>
            </g>
        </g>
        <g id="Group_141" data-name="Group 141" transform="translate(31.32 28.778)">
            <path id="Path_242" d="M50.241 67.065V50.927q0-8.557-7.71-8.559a7.264 7.264 0 0 0-5.749 2.222 8.68 8.68 0 0 0-2.026 6.077v16.4h-2.678V40.082h2.679v3.266q1.828-3.592 7.775-3.593 5.031 0 7.71 2.875t2.679 8.037v16.4z" class="cls-1" data-name="Path 242" transform="translate(-32.078 -30.935)"/>
            <path id="Path_243" d="M84.064 62.556a9.766 9.766 0 0 1-7.514 2.875 9.583 9.583 0 0 1-7.383-2.81q-2.613-2.808-2.613-7.841V37.925h2.679v16.856a9.2 9.2 0 0 0 1.7 5.946q1.764 2.091 5.619 2.091 7.512 0 7.514-8.037V37.925h2.613v16.856q-.002 4.967-2.615 7.775zM72.042 33.09a2.533 2.533 0 0 1-1.5-.588 2.347 2.347 0 0 1-.653-1.568q0-1.764 2.156-2.157 1.633 0 2.157 2.157a1.906 1.906 0 0 1-2.16 2.156zm8.951 0a2.531 2.531 0 0 1-1.5-.588 2.347 2.347 0 0 1-.653-1.568q0-1.764 2.156-2.157 1.632 0 2.157 2.157a1.906 1.906 0 0 1-2.16 2.156z" class="cls-1" data-name="Path 243" transform="translate(-38.853 -28.778)"/>
        </g>
    </g>
</svg>
